<svg xmlns="http://www.w3.org/2000/svg" width="770" height="515" viewBox="0 0 770 515" font-family="Inter, sans-serif">
<defs><clipPath id="card"><rect x="5" y="16" width="760" height="482" rx="18"/></clipPath><pattern id="dots" width="18" height="18" patternUnits="userSpaceOnUse"><circle cx="9" cy="9" r="1.1" fill="#e7e2d3"/></pattern><marker id="aG" viewBox="0 0 10 10" refX="6" refY="5" markerWidth="5" markerHeight="5" orient="auto"><path d="M0,0 L10,5 L0,10 z" fill="#16a34a"/></marker><marker id="aO" viewBox="0 0 10 10" refX="6" refY="5" markerWidth="5" markerHeight="5" orient="auto"><path d="M0,0 L10,5 L0,10 z" fill="#f59e0b"/></marker></defs>
<rect width="770" height="515" fill="#ffffff"/>
<rect x="5" y="16" width="760" height="482" rx="18" fill="#fffdf6"/>
<g clip-path="url(#card)"><rect x="5" y="64" width="760" height="440" fill="url(#dots)"/><rect x="5" y="16" width="760" height="48" fill="#0f766e"/></g>
<text x="385" y="48" text-anchor="middle" font-size="23" font-weight="800" fill="#ffffff">Zona Kedekatan Anak dan Induk Domba</text>
<g transform="translate(118,27) scale(0.27)"><rect x="34" y="62" width="8" height="26" rx="4" fill="#334155"/><rect x="50" y="62" width="8" height="26" rx="4" fill="#334155"/><rect x="76" y="62" width="8" height="26" rx="4" fill="#334155"/><rect x="90" y="62" width="8" height="26" rx="4" fill="#334155"/><circle cx="30" cy="40" r="20.5" fill="#334155"/><circle cx="50" cy="29" r="22.5" fill="#334155"/><circle cx="72" cy="29" r="22.5" fill="#334155"/><circle cx="90" cy="40" r="19.5" fill="#334155"/><circle cx="40" cy="55" r="20.5" fill="#334155"/><circle cx="62" cy="58" r="21.5" fill="#334155"/><circle cx="84" cy="54" r="19.5" fill="#334155"/><circle cx="14" cy="42" r="10.5" fill="#334155"/><circle cx="30" cy="40" r="18" fill="#ffffff"/><circle cx="50" cy="29" r="20" fill="#ffffff"/><circle cx="72" cy="29" r="20" fill="#ffffff"/><circle cx="90" cy="40" r="17" fill="#ffffff"/><circle cx="40" cy="55" r="18" fill="#ffffff"/><circle cx="62" cy="58" r="19" fill="#ffffff"/><circle cx="84" cy="54" r="17" fill="#ffffff"/><circle cx="14" cy="42" r="8" fill="#ffffff"/><ellipse cx="100" cy="27" rx="10" ry="4.5" fill="#475569" transform="rotate(-25 100 27)"/><ellipse cx="108" cy="40" rx="13" ry="16" fill="#334155" transform="rotate(-15 108 40)"/><circle cx="103" cy="24" r="7" fill="#334155"/><circle cx="103" cy="24" r="5.5" fill="#ffffff"/><circle cx="113" cy="35" r="3.2" fill="#fff"/><circle cx="114" cy="35" r="1.6" fill="#334155"/><ellipse cx="111" cy="48" rx="3" ry="2" fill="#f9a8d4"/></g>
<g transform="translate(650.4,27) scale(-0.27,0.27)"><rect x="34" y="62" width="8" height="26" rx="4" fill="#334155"/><rect x="50" y="62" width="8" height="26" rx="4" fill="#334155"/><rect x="76" y="62" width="8" height="26" rx="4" fill="#334155"/><rect x="90" y="62" width="8" height="26" rx="4" fill="#334155"/><circle cx="30" cy="40" r="20.5" fill="#334155"/><circle cx="50" cy="29" r="22.5" fill="#334155"/><circle cx="72" cy="29" r="22.5" fill="#334155"/><circle cx="90" cy="40" r="19.5" fill="#334155"/><circle cx="40" cy="55" r="20.5" fill="#334155"/><circle cx="62" cy="58" r="21.5" fill="#334155"/><circle cx="84" cy="54" r="19.5" fill="#334155"/><circle cx="14" cy="42" r="10.5" fill="#334155"/><circle cx="30" cy="40" r="18" fill="#ffffff"/><circle cx="50" cy="29" r="20" fill="#ffffff"/><circle cx="72" cy="29" r="20" fill="#ffffff"/><circle cx="90" cy="40" r="17" fill="#ffffff"/><circle cx="40" cy="55" r="18" fill="#ffffff"/><circle cx="62" cy="58" r="19" fill="#ffffff"/><circle cx="84" cy="54" r="17" fill="#ffffff"/><circle cx="14" cy="42" r="8" fill="#ffffff"/><ellipse cx="100" cy="27" rx="10" ry="4.5" fill="#475569" transform="rotate(-25 100 27)"/><ellipse cx="108" cy="40" rx="13" ry="16" fill="#334155" transform="rotate(-15 108 40)"/><circle cx="103" cy="24" r="7" fill="#334155"/><circle cx="103" cy="24" r="5.5" fill="#ffffff"/><circle cx="113" cy="35" r="3.2" fill="#fff"/><circle cx="114" cy="35" r="1.6" fill="#334155"/><ellipse cx="111" cy="48" rx="3" ry="2" fill="#f9a8d4"/></g>
<line x1="5" y1="64" x2="765" y2="64" stroke="#1e293b" stroke-width="2" stroke-dasharray="8 6"/>
<path d="M76,112 L150,225 L215,170 Z" fill="#fde68a" opacity="0.45"/>
<g transform="translate(22,80)"><rect x="0" y="0" width="7" height="34" rx="2" fill="#64748b"/><rect x="5" y="12" width="14" height="6" fill="#64748b"/><g transform="rotate(25 30 18)"><rect x="14" y="6" width="38" height="22" rx="5" fill="#e2e8f0" stroke="#334155" stroke-width="2.5"/><rect x="50" y="10" width="9" height="14" rx="2" fill="#334155"/><circle cx="23" cy="17" r="3" fill="#ef4444"/></g></g>
<text x="90" y="92" font-size="13.5" font-weight="800" fill="#1e293b">Area Kandang CCTV</text>
<text x="90" y="108" font-size="10.5" font-weight="600" fill="#64748b">pemantauan trajectory objek</text>
<circle cx="389" cy="248" r="172" fill="none" stroke="#bfdbfe" stroke-width="2"/>
<circle cx="389" cy="248" r="164" fill="#dbeafe" stroke="#3b82f6" stroke-width="3"/>
<circle cx="389" cy="248" r="134" fill="none" stroke="#93c5fd" stroke-width="2" stroke-dasharray="2 8" stroke-linecap="round"/>
<circle cx="384" cy="232" r="80" fill="#ffffff" stroke="#475569" stroke-width="2.5"/>
<ellipse cx="377" cy="272" rx="52" ry="22" fill="#fde68a" stroke="#f59e0b" stroke-width="2.5" stroke-dasharray="6 4"/>
<g transform="translate(312,174) scale(1.12)"><rect x="34" y="62" width="8" height="26" rx="4" fill="#334155"/><rect x="50" y="62" width="8" height="26" rx="4" fill="#334155"/><rect x="76" y="62" width="8" height="26" rx="4" fill="#334155"/><rect x="90" y="62" width="8" height="26" rx="4" fill="#334155"/><ellipse cx="58" cy="77" rx="10" ry="7" fill="#f9a8d4" stroke="#334155" stroke-width="2"/><rect x="53" y="81" width="3" height="5" rx="1.5" fill="#ec4899"/><rect x="60" y="81" width="3" height="5" rx="1.5" fill="#ec4899"/><circle cx="30" cy="40" r="20.5" fill="#334155"/><circle cx="50" cy="29" r="22.5" fill="#334155"/><circle cx="72" cy="29" r="22.5" fill="#334155"/><circle cx="90" cy="40" r="19.5" fill="#334155"/><circle cx="40" cy="55" r="20.5" fill="#334155"/><circle cx="62" cy="58" r="21.5" fill="#334155"/><circle cx="84" cy="54" r="19.5" fill="#334155"/><circle cx="14" cy="42" r="10.5" fill="#334155"/><circle cx="30" cy="40" r="18" fill="#ffffff"/><circle cx="50" cy="29" r="20" fill="#ffffff"/><circle cx="72" cy="29" r="20" fill="#ffffff"/><circle cx="90" cy="40" r="17" fill="#ffffff"/><circle cx="40" cy="55" r="18" fill="#ffffff"/><circle cx="62" cy="58" r="19" fill="#ffffff"/><circle cx="84" cy="54" r="17" fill="#ffffff"/><circle cx="14" cy="42" r="8" fill="#ffffff"/><ellipse cx="100" cy="27" rx="10" ry="4.5" fill="#475569" transform="rotate(-25 100 27)"/><ellipse cx="108" cy="40" rx="13" ry="16" fill="#334155" transform="rotate(-15 108 40)"/><circle cx="103" cy="24" r="7" fill="#334155"/><circle cx="103" cy="24" r="5.5" fill="#ffffff"/><circle cx="113" cy="35" r="3.2" fill="#fff"/><circle cx="114" cy="35" r="1.6" fill="#334155"/><ellipse cx="111" cy="48" rx="3" ry="2" fill="#f9a8d4"/></g>
<rect x="309.0" y="140" width="150" height="24" rx="12" fill="#334155"/><text x="384" y="156.5" text-anchor="middle" font-size="13" font-weight="800" fill="#fff">Induk (titik acuan)</text>
<line x1="368" y1="340" x2="368" y2="302" stroke="#f59e0b" stroke-width="3.5" stroke-linecap="round" marker-end="url(#aO)"/>
<g transform="translate(296,330) scale(0.6)"><rect x="34" y="62" width="8" height="26" rx="4" fill="#334155"/><rect x="50" y="62" width="8" height="26" rx="4" fill="#334155"/><rect x="76" y="62" width="8" height="26" rx="4" fill="#334155"/><rect x="90" y="62" width="8" height="26" rx="4" fill="#334155"/><circle cx="30" cy="40" r="20.5" fill="#334155"/><circle cx="50" cy="29" r="22.5" fill="#334155"/><circle cx="72" cy="29" r="22.5" fill="#334155"/><circle cx="90" cy="40" r="19.5" fill="#334155"/><circle cx="40" cy="55" r="20.5" fill="#334155"/><circle cx="62" cy="58" r="21.5" fill="#334155"/><circle cx="84" cy="54" r="19.5" fill="#334155"/><circle cx="14" cy="42" r="10.5" fill="#334155"/><circle cx="30" cy="40" r="18" fill="#fff7ed"/><circle cx="50" cy="29" r="20" fill="#fff7ed"/><circle cx="72" cy="29" r="20" fill="#fff7ed"/><circle cx="90" cy="40" r="17" fill="#fff7ed"/><circle cx="40" cy="55" r="18" fill="#fff7ed"/><circle cx="62" cy="58" r="19" fill="#fff7ed"/><circle cx="84" cy="54" r="17" fill="#fff7ed"/><circle cx="14" cy="42" r="8" fill="#fff7ed"/><ellipse cx="100" cy="27" rx="10" ry="4.5" fill="#475569" transform="rotate(-25 100 27)"/><ellipse cx="108" cy="40" rx="13" ry="16" fill="#334155" transform="rotate(-15 108 40)"/><circle cx="103" cy="24" r="7" fill="#334155"/><circle cx="103" cy="24" r="5.5" fill="#fff7ed"/><circle cx="113" cy="35" r="3.2" fill="#fff"/><circle cx="114" cy="35" r="1.6" fill="#334155"/><ellipse cx="111" cy="48" rx="3" ry="2" fill="#f9a8d4"/></g>
<path d="M380,330 C380,326 385,326 385,330 C385,326 390,326 390,330 C390,334 385,337 385,339 C385,337 380,334 380,330Z" fill="#f472b6"/>
<rect x="298.0" y="386" width="60" height="24" rx="12" fill="#16a34a"/><text x="328" y="402.5" text-anchor="middle" font-size="13" font-weight="800" fill="#fff">Anak</text>
<rect x="414" y="360" width="158" height="44" rx="12" fill="#fef3c7" stroke="#f59e0b" stroke-width="2"/><circle cx="434" cy="382" r="10" fill="#fff" stroke="#b45309" stroke-width="2"/><path d="M434,376 L434,382 L438,385" stroke="#b45309" stroke-width="2" fill="none" stroke-linecap="round"/><text x="450" y="378" font-size="11.5" font-weight="700" fill="#92400e">Durasi keberadaan</text><text x="450" y="394" font-size="11.5" font-weight="700" fill="#92400e">di area ambing</text>
<line x1="22" y1="214" x2="40" y2="214" stroke="#86efac" stroke-width="3" stroke-linecap="round"/>
<line x1="25" y1="226" x2="40" y2="226" stroke="#86efac" stroke-width="3" stroke-linecap="round"/>
<line x1="28" y1="238" x2="40" y2="238" stroke="#86efac" stroke-width="3" stroke-linecap="round"/>
<g transform="translate(48,198) scale(0.6)"><rect x="34" y="62" width="8" height="26" rx="4" fill="#334155"/><rect x="50" y="62" width="8" height="26" rx="4" fill="#334155"/><rect x="76" y="62" width="8" height="26" rx="4" fill="#334155"/><rect x="90" y="62" width="8" height="26" rx="4" fill="#334155"/><circle cx="30" cy="40" r="20.5" fill="#334155"/><circle cx="50" cy="29" r="22.5" fill="#334155"/><circle cx="72" cy="29" r="22.5" fill="#334155"/><circle cx="90" cy="40" r="19.5" fill="#334155"/><circle cx="40" cy="55" r="20.5" fill="#334155"/><circle cx="62" cy="58" r="21.5" fill="#334155"/><circle cx="84" cy="54" r="19.5" fill="#334155"/><circle cx="14" cy="42" r="10.5" fill="#334155"/><circle cx="30" cy="40" r="18" fill="#fff7ed"/><circle cx="50" cy="29" r="20" fill="#fff7ed"/><circle cx="72" cy="29" r="20" fill="#fff7ed"/><circle cx="90" cy="40" r="17" fill="#fff7ed"/><circle cx="40" cy="55" r="18" fill="#fff7ed"/><circle cx="62" cy="58" r="19" fill="#fff7ed"/><circle cx="84" cy="54" r="17" fill="#fff7ed"/><circle cx="14" cy="42" r="8" fill="#fff7ed"/><ellipse cx="100" cy="27" rx="10" ry="4.5" fill="#475569" transform="rotate(-25 100 27)"/><ellipse cx="108" cy="40" rx="13" ry="16" fill="#334155" transform="rotate(-15 108 40)"/><circle cx="103" cy="24" r="7" fill="#334155"/><circle cx="103" cy="24" r="5.5" fill="#fff7ed"/><circle cx="113" cy="35" r="3.2" fill="#fff"/><circle cx="114" cy="35" r="1.6" fill="#334155"/><ellipse cx="111" cy="48" rx="3" ry="2" fill="#f9a8d4"/></g>
<rect x="54.0" y="254" width="60" height="24" rx="12" fill="#16a34a"/><text x="84" y="270.5" text-anchor="middle" font-size="13" font-weight="800" fill="#fff">Anak</text>
<path d="M132,222 Q220,192 298,226" fill="none" stroke="#16a34a" stroke-width="3" stroke-dasharray="7 5" stroke-linecap="round" marker-end="url(#aG)"/>
<rect x="34" y="290" width="128" height="44" rx="12" fill="#dcfce7" stroke="#16a34a" stroke-width="2"/><g transform="translate(54,312)" fill="none" stroke="#15803d" stroke-width="2.2" stroke-linecap="round"><path d="M-8,0 A8,8 0 1 1 0,8"/><path d="M-3,8 L0,8 L0,5"/></g><text x="70" y="308" font-size="12" font-weight="700" fill="#166534">Frekuensi</text><text x="70" y="324" font-size="12" font-weight="700" fill="#166534">pendekatan</text>
<line x1="548" y1="92" x2="564" y2="92" stroke="#cbd5e1" stroke-width="3" stroke-linecap="round"/>
<line x1="551" y1="102" x2="564" y2="102" stroke="#cbd5e1" stroke-width="3" stroke-linecap="round"/>
<line x1="554" y1="112" x2="564" y2="112" stroke="#cbd5e1" stroke-width="3" stroke-linecap="round"/>
<g transform="translate(570,76) scale(0.6)"><rect x="34" y="62" width="8" height="26" rx="4" fill="#334155"/><rect x="50" y="62" width="8" height="26" rx="4" fill="#334155"/><rect x="76" y="62" width="8" height="26" rx="4" fill="#334155"/><rect x="90" y="62" width="8" height="26" rx="4" fill="#334155"/><circle cx="30" cy="40" r="20.5" fill="#334155"/><circle cx="50" cy="29" r="22.5" fill="#334155"/><circle cx="72" cy="29" r="22.5" fill="#334155"/><circle cx="90" cy="40" r="19.5" fill="#334155"/><circle cx="40" cy="55" r="20.5" fill="#334155"/><circle cx="62" cy="58" r="21.5" fill="#334155"/><circle cx="84" cy="54" r="19.5" fill="#334155"/><circle cx="14" cy="42" r="10.5" fill="#334155"/><circle cx="30" cy="40" r="18" fill="#f1f5f9"/><circle cx="50" cy="29" r="20" fill="#f1f5f9"/><circle cx="72" cy="29" r="20" fill="#f1f5f9"/><circle cx="90" cy="40" r="17" fill="#f1f5f9"/><circle cx="40" cy="55" r="18" fill="#f1f5f9"/><circle cx="62" cy="58" r="19" fill="#f1f5f9"/><circle cx="84" cy="54" r="17" fill="#f1f5f9"/><circle cx="14" cy="42" r="8" fill="#f1f5f9"/><ellipse cx="100" cy="27" rx="10" ry="4.5" fill="#475569" transform="rotate(-25 100 27)"/><ellipse cx="108" cy="40" rx="13" ry="16" fill="#334155" transform="rotate(-15 108 40)"/><circle cx="103" cy="24" r="7" fill="#334155"/><circle cx="103" cy="24" r="5.5" fill="#f1f5f9"/><circle cx="113" cy="35" r="3.2" fill="#fff"/><circle cx="114" cy="35" r="1.6" fill="#334155"/><ellipse cx="111" cy="48" rx="3" ry="2" fill="#f9a8d4"/></g>
<rect x="576.0" y="134" width="60" height="24" rx="12" fill="#94a3b8"/><text x="606" y="150.5" text-anchor="middle" font-size="13" font-weight="800" fill="#fff">Anak</text>
<circle cx="540" cy="188" r="17" fill="#ef4444"/><path d="M533,181 L547,195 M547,181 L533,195" stroke="#fff" stroke-width="3.5" stroke-linecap="round"/>
<rect x="584" y="168" width="160" height="42" rx="12" fill="#fee2e2" stroke="#ef4444" stroke-width="2"/><text x="664" y="185" text-anchor="middle" font-size="11.5" font-weight="700" fill="#991b1b">Tidak muncul aktivitas</text><text x="664" y="201" text-anchor="middle" font-size="11.5" font-weight="700" fill="#991b1b">menyusu</text>
<rect x="24" y="428" width="722" height="56" rx="12" fill="#ffffff" stroke="#cbd5e1" stroke-width="1.5"/><circle cx="57" cy="456" r="14" fill="#dbeafe" stroke="#3b82f6" stroke-width="3"/><text x="84" y="453" font-size="13" fill="#1e293b">Zona kedekatan anak terhadap</text><text x="84" y="470" font-size="13" fill="#1e293b">induk</text><ellipse cx="393" cy="456" rx="17" ry="11" fill="#fde68a" stroke="#f59e0b" stroke-width="2.5" stroke-dasharray="5 3"/><text x="420" y="453" font-size="13" fill="#1e293b">Zona sekitar ambing sebagai tanda adanya</text><text x="420" y="470" font-size="13" fill="#1e293b">aktivitas menyusu</text>
<rect x="5" y="16" width="760" height="482" rx="18" fill="none" stroke="#1e293b" stroke-width="2.2" stroke-dasharray="8 6"/>
</svg>